<?xml version="1.0" encoding="utf-8"?>
<!-- Generator: Adobe Illustrator 24.1.2, SVG Export Plug-In . SVG Version: 6.00 Build 0)  -->
<svg version="1.1" id="Layer_1" xmlns="http://www.w3.org/2000/svg" xmlns:xlink="http://www.w3.org/1999/xlink" x="0px" y="0px"
	 viewBox="0 0 2171.8 1127.7" style="enable-background:new 0 0 2171.8 1127.7;" xml:space="preserve">
<style type="text/css">
	.st0{fill-rule:evenodd;clip-rule:evenodd;}
</style>
<g>
	<path class="st0" d="M2107.8,615.5c-44.1-1.1-78.3,3.3-107,15.4c-8.3,3.3-21.5,3.3-22.6,13.8c4.4,4.4,5,11.6,8.8,17.7
		c6.6,11,18.2,25.9,28.7,33.6c11.6,8.8,23.2,17.6,35.3,25.4c21.5,13.2,45.7,20.9,66.7,34.2c12.1,7.7,24.3,17.7,36.4,25.9
		c6.1,4.4,9.9,11.6,17.6,14.3v-1.6c-3.9-5-4.9-12.1-8.8-17.7c-5.5-5.5-11-10.5-16.5-16c-16-21.5-35.8-40.3-57.3-55.7
		c-17.7-12.1-56.2-28.7-63.4-49.1l-1.1-1.1c12.1-1.1,26.5-5.5,38.1-8.8c18.7-5,35.8-3.9,55.1-8.8c8.9-2.3,17.7-4.9,26.5-7.7v-5
		c-9.9-9.9-17.1-23.2-27.6-32.5c-28.1-24.3-59-48-91-67.8c-17.1-11-39.2-18.2-57.4-27.6c-6.6-3.3-17.6-5-21.5-10.5
		c-9.9-12.1-15.4-28.1-22.6-42.5c-16-30.3-31.4-64-45.2-95.9c-9.9-21.5-16-43-28.1-62.9c-56.8-93.7-118.6-150.5-213.4-206.2
		c-20.4-11.6-44.7-16.5-70.6-22.6c-13.8-0.5-27.6-1.6-41.4-2.2c-8.8-3.9-17.6-14.3-25.4-19.3c-31.4-19.8-112.5-62.9-135.6-6.1
		c-14.9,35.8,22.1,71.1,34.7,89.3c9.4,12.7,21.5,27,28.1,41.3c3.9,9.4,5,19.3,8.8,29.2c8.8,24.3,17.1,51.3,28.7,73.9
		c6.1,11.6,12.7,23.7,20.4,34.2c4.4,6.1,12.1,8.8,13.8,18.8c-7.7,11-8.3,27.6-12.7,41.3c-19.8,62.3-12.1,139.5,16,185.3
		c8.8,13.8,29.8,44.1,57.9,32.5c24.8-9.9,19.3-41.3,26.4-68.9c1.7-6.6,0.6-11,3.9-15.4v1.1c7.7,15.4,15.4,30.3,22.6,45.8
		c17.1,27,46.9,55.1,71.7,73.9c13.2,9.9,23.7,27,40.3,33.1v-1.7h-1.1c-3.3-4.9-8.3-7.2-12.7-11c-9.9-9.9-21-22.1-28.7-33.1
		c-23.2-30.9-43.6-65.1-61.8-100.3c-8.8-17.1-16.5-35.8-23.7-52.9c-3.3-6.6-3.3-16.5-8.8-19.8c-8.3,12.1-20.4,22.6-26.5,37.5
		c-10.5,23.7-11.6,52.9-15.4,83.3c-2.2,0.5-1.1,0-2.2,1.1c-17.6-4.4-23.7-22.6-30.3-38c-16.5-39.2-19.3-102-4.9-147.2
		c3.9-11.6,20.4-48,13.8-59c-3.3-10.5-14.3-16.5-20.4-24.8c-7.2-10.5-14.9-23.7-19.8-35.3c-13.2-30.9-19.9-65.1-34.2-95.9
		c-6.6-14.3-18.2-29.2-27.6-42.5c-10.5-14.9-22.1-25.4-30.3-43c-2.8-6.1-6.6-16-2.2-22.6c1.1-4.4,3.3-6.1,7.7-7.2
		c7.2-6.1,27.6,1.6,34.7,5c20.4,8.3,37.5,16,54.6,27.6c7.7,5.5,16,16,25.9,18.8h11.6c17.6,3.9,37.5,1.1,54,6.1
		c29.2,9.4,55.7,23.2,79.4,38c72.2,45.8,131.8,110.8,172,188.6c6.6,12.7,9.4,24.3,15.4,37.5c11.6,27,25.9,54.6,37.5,81
		c11.6,25.9,22.6,52.4,39.1,73.9c8.3,11.6,41.4,17.6,56.2,23.7c11.1,5,28.1,9.4,38.1,15.4c18.7,11.6,37.5,24.8,55.1,37.5
		C2078.6,590.7,2106.2,604.4,2107.8,615.5L2107.8,615.5z"/>
	<path class="st0" d="M1545.5,136.3c-9.4,0-16,1.1-22.6,2.7v1.1h1.1c4.4,8.8,12.1,14.9,17.6,22.6c4.4,8.8,8.3,17.6,12.7,26.5
		l1.1-1.1c7.7-5.5,11.6-14.3,11.6-27.6c-3.3-3.9-3.9-7.7-6.6-11.6C1557,143.5,1549.9,140.8,1545.5,136.3z"/>
</g>
<g>
	<path class="st0" d="M0,1027.3h71.7V743.4l111.9,247.6c12.7,29.8,30.9,40.8,66.2,40.8c35.3,0,52.4-11,65.6-40.8l111.4-247.6v283.9
		H499V743.4c0-27.6-11-40.8-34.2-47.9c-54.6-16.5-91-2.2-107.5,34.7L247.6,975L141.7,730.2c-16-36.9-52.9-51.3-108.1-34.7
		C11,702.6,0,715.8,0,743.4L0,1027.3L0,1027.3L0,1027.3z"/>
	<path class="st0" d="M558.5,796.3h72.2v156c-0.5,8.8,2.8,28.7,41.9,29.2c20.4,0.6,155.5,0,156.6,0V795.2h72.2v255.3
		c0,62.9-77.7,76.6-114.1,77.2H560.2v-48h227.7c46.3-5,40.8-28.1,40.8-35.8v-18.7H676c-71.1-0.5-116.9-32-117.4-67.8
		C558.5,954,560.2,797.4,558.5,796.3L558.5,796.3z"/>
	<path class="st0" d="M956.6,1027.3h207.3c24.3,0,47.4-4.9,66.2-13.8c31.4-14.3,46.3-33.6,46.3-59v-52.9c0-20.4-17.1-39.7-51.3-52.9
		c-17.6-6.6-39.7-10.5-61.2-10.5h-87.1c-29.2,0-43-8.8-46.9-28.1c-0.5-2.2-0.5-4.4-0.5-6.6V771c0-1.7,0-3.9,0.5-6.1
		c3.9-14.9,11.6-18.7,37-21.5h212.3v-47.9h-201.8c-29.2,0-44.7,1.6-58.4,6.1c-42.5,13.2-61.2,34.2-61.2,71.1v41.9
		c0,32.5,36.4,60.1,98.1,66.7c6.6,0.5,13.8,0.5,21,0.5h74.4c2.8,0,5.5,0,7.7,0.6c22.6,2.2,32.5,6.1,39.1,14.3
		c4.4,4.4,5.5,8.3,5.5,13.2v41.9c0,4.9-3.3,11.6-9.9,17.1c-6.6,5.5-17.1,9.4-30.9,9.9c-2.8,0-4.4,0.6-7.2,0.6h-199V1027.3z"/>
	<path class="st0" d="M1725.2,944.1c0,49.1,36.9,76.6,110.8,82.2c7.2,0.6,13.8,1.1,20.9,1.1h187.5v-47.9h-189.1
		c-41.9,0-57.9-10.5-57.9-35.8V695.4h-72.2L1725.2,944.1L1725.2,944.1z"/>
	<path class="st0" d="M1322.2,946.3V775.4c0-43.6,30.9-70,91-78.3c6.6-0.6,13.2-1.1,19.3-1.1h136.7c7.2,0,13.2,0.5,20.4,1.1
		c60.1,8.3,90.4,34.7,90.4,78.3v170.9c0,35.3-12.7,54-42.4,66.7l70.6,63.9h-83.3l-57.3-51.8l-57.9,3.3h-77.2
		c-14.1-0.1-28.2-1.9-41.9-5.5C1344.8,1010.2,1322.2,986,1322.2,946.3L1322.2,946.3z M1399.9,942.4c0,2.2,1.1,4.4,1.6,7.2
		c3.9,19.8,22.6,30.9,51.3,30.9h65.1l-59.6-54h83.2l52.4,47.4c9.9-5.5,16-13.2,18.2-23.2c0.5-2.2,0.5-5,0.5-7.2V779.8
		c0-2.2,0-4.4-0.5-6.6c-3.9-18.7-22.6-29.2-50.7-29.2h-108.6c-32,0-52.9,13.8-52.9,35.8V942.4L1399.9,942.4z"/>
	<polygon class="st0" points="2077.5,1027.9 2088,1027.9 2088,987.6 2101.8,987.6 2101.8,979.3 2063.2,979.3 2063.2,987.6 
		2077.5,987.6 2077.5,1027.9 	"/>
	<polygon class="st0" points="2157.5,1027.9 2167.4,1027.9 2167.4,979.4 2152.5,979.4 2140.4,1012.4 2127.1,979.4 2112.8,979.4 
		2112.8,1027.9 2122.2,1027.9 2122.2,990.9 2122.7,990.9 2136.5,1027.9 2143.7,1027.9 2157.5,990.9 	"/>
</g>
</svg>
