<?xml version="1.0" encoding="utf-8"?>
<!-- Generator: Adobe Illustrator 24.1.2, SVG Export Plug-In . SVG Version: 6.00 Build 0)  -->
<svg version="1.1"
	 id="svg" xmlns:cc="http://creativecommons.org/ns#" xmlns:dc="http://purl.org/dc/elements/1.1/" xmlns:rdf="http://www.w3.org/1999/02/22-rdf-syntax-ns#"
	 xmlns="http://www.w3.org/2000/svg" xmlns:xlink="http://www.w3.org/1999/xlink" x="0px" y="0px" viewBox="0 0 800 400"
	 style="enable-background:new 0 0 800 400;" xml:space="preserve">
<path id="p2" d="M588.2,84.3h118.6c34.8,0.3,60.1,10.3,75.7,30c15.6,19.7,20.8,46.5,15.5,80.6c-2.1,15.6-6.6,30.8-13.7,45.8
	c-6.8,15-16.2,28.5-28.3,40.5c-14.8,15.3-30.5,25-47.4,29.1c-16.8,4.1-34.2,6.2-52.2,6.2h-53.1l-16.8,83.7h-61.5L588.2,84.3
	 M640,134.6l-26.6,132.2c1.8,0.3,3.5,0.4,5.3,0.4h6.2c28.3,0.3,51.9-2.5,70.8-8.4c18.9-6.2,31.6-27.6,38.1-64.3
	c5.3-30.8,0-48.6-15.9-53.3c-15.6-4.7-35.3-6.9-58.9-6.6c-3.5,0.3-6.9,0.4-10.2,0.4c-3,0-6.1,0-9.3,0L640,134.6"/>
<path id="h" d="M343.3,0.2h61.1l-17.3,84.1H442c30.1,0.6,52.5,6.8,67.3,18.5c15.1,11.7,19.5,34.1,13.3,67l-29.7,146.7h-62
	l28.3-140.1c3-14.7,2.1-25.1-2.7-31.3c-4.7-6.2-14.9-9.3-30.5-9.3l-49.1-0.4l-36.3,181.1h-61.1L343.3,0.2"/>
<path id="p1_1_" d="M63.3,84.3h118.6c34.8,0.3,60.1,10.3,75.7,30c15.6,19.7,20.8,46.5,15.5,80.6c-2.1,15.6-6.6,30.8-13.7,45.8
	c-6.8,15-16.2,28.5-28.3,40.5c-14.8,15.3-30.5,25-47.4,29.1c-16.8,4.1-34.2,6.2-52.2,6.2H78.4l-16.8,83.7H0L63.3,84.3 M115.1,134.6
	L88.5,266.7c1.8,0.3,3.5,0.4,5.3,0.4h6.2c28.3,0.3,51.9-2.5,70.8-8.4c18.9-6.2,31.6-27.6,38.1-64.3c5.3-30.8,0-48.6-15.9-53.3
	c-15.6-4.7-35.3-6.9-58.9-6.6c-3.5,0.3-6.9,0.4-10.2,0.4c-3,0-6.1,0-9.3,0L115.1,134.6"/>
</svg>
