<?xml version="1.0" encoding="utf-8"?>
<!-- Generator: Adobe Illustrator 24.0.2, SVG Export Plug-In . SVG Version: 6.00 Build 0)  -->
<svg version="1.1" id="Ebene_1" xmlns="http://www.w3.org/2000/svg" xmlns:xlink="http://www.w3.org/1999/xlink" x="0px" y="0px"
	 viewBox="0 0 90 30" style="enable-background:new 0 0 90 30;" xml:space="preserve">
<style type="text/css">
	.st0{fill:#FFFFFF;}
	.st1{fill-rule:evenodd;clip-rule:evenodd;fill:#FFFFFF;}
</style>
<g>
	<g>
		<path class="st0" d="M43.5,19.5c0,0.8-0.3,1.3-0.9,1.6c-0.6,0.3-1.6,0.4-3.2,0.4c-0.7,0-1.3-0.1-1.8-0.2s-1-0.3-1.2-0.6
			c-0.2-0.3-0.3-0.5-0.4-0.8S36,19.4,36,19V8.5h-2.5v10.7c0,1.4,0.3,2.5,1,3.2s2.1,1.1,4.1,1.1c3,0,4.6-0.7,4.9-2.1v2.1H46v-15h-2.5
			L43.5,19.5L43.5,19.5z M49.5,6H52V3.5h-2.5V6z M49.5,23.5H52v-15h-2.5V23.5z M67.2,8.5h-3.4L58,14.7V3.5h-2.5v20H58v-7.6l6.3,7.6
			h3.5l-7.1-8.2L67.2,8.5z M70.5,23.5H73v-15h-2.5V23.5z M70.5,6H73V3.5h-2.5V6z M87.5,10.5v-2H82v-5h-2.5v5h-3v2h3v8.3
			c0,1.8,0.5,3.1,1.2,3.7c0.7,0.6,2.1,1,3.9,1c1.1,0,1.9-0.1,2.8-0.2v-2c-1.2,0.2-1.6,0.2-2,0.2c-1.3,0-2.5-0.2-2.9-0.5
			c-0.4-0.4-0.6-0.9-0.6-2v-8.5L87.5,10.5L87.5,10.5z"/>
	</g>
</g>
<g>
	<g>
		<path class="st1" d="M20.9,5.2L16,8.1l5.5,3.2v8.3l-7.4,4.2l-7.7-4.2v-6.4l-4.9-2.5v11.8l12.4,7.1l12.5-7.1V8.3L20.9,5.2z M18.1,4
			l-4.7-2.7l-4.9,3l4.7,2.6L18.1,4z"/>
	</g>
</g>
</svg>
